<svg width="1200" height="700" viewBox="0 0 1200 700" xmlns="http://www.w3.org/2000/svg" role="img" aria-labelledby="title desc">
  <title id="title">CellPainting-Claw structure</title>
  <desc id="desc">A three-part pyramid with OpenClaw at the top, cellpainting_skills in the middle, and Foundation packages at the bottom, with short labels on the left and short function notes on the right.</desc>
  <defs>
    <style>
      .bg { fill: #fbf7ef; }
      .top { fill: #ead2b7; stroke: #8a6a4c; stroke-width: 2.5; }
      .mid { fill: #d7e6df; stroke: #648579; stroke-width: 2.5; }
      .bot { fill: #d7e0ee; stroke: #6d84a7; stroke-width: 2.5; }
      .inside { font: 700 24px "Helvetica Neue", Helvetica, Arial, sans-serif; fill: #1f2735; }
      .left { font: 700 20px "Helvetica Neue", Helvetica, Arial, sans-serif; fill: #3a4454; }
      .rightTitle { font: 700 22px "Helvetica Neue", Helvetica, Arial, sans-serif; fill: #243040; }
      .rightText { font: 500 18px "Helvetica Neue", Helvetica, Arial, sans-serif; fill: #4b596d; }
      .lineTop { stroke: #b07b4d; stroke-width: 2.5; }
      .lineMid { stroke: #638878; stroke-width: 2.5; }
      .lineBot { stroke: #6f88ad; stroke-width: 2.5; }
    </style>
  </defs>

  <rect class="bg" x="0" y="0" width="1200" height="700" />

  <polygon class="top" points="490,120 560,200 420,200" />
  <polygon class="mid" points="420,200 560,200 630,330 350,330" />
  <polygon class="bot" points="350,330 630,330 740,520 240,520" />

  <text class="inside" x="490" y="170" text-anchor="middle">OpenClaw</text>
  <text class="inside" x="490" y="276" text-anchor="middle">cellpainting_skills</text>
  <text class="inside" x="490" y="438" text-anchor="middle">Foundation packages</text>

  <text class="left" x="90" y="170">Agent access</text>
  <text class="left" x="90" y="280">Shared skills</text>
  <text class="left" x="90" y="450">Core packages</text>

  <line class="lineTop" x1="760" y1="160" x2="875" y2="160" />
  <circle cx="760" cy="160" r="5" fill="#b07b4d" />
  <text class="rightTitle" x="895" y="150">Natural-language use</text>
  <text class="rightText" x="895" y="183">- accept prompts</text>
  <text class="rightText" x="895" y="213">- route requests to skills</text>
  <text class="rightText" x="895" y="243">- return results</text>

  <line class="lineMid" x1="760" y1="275" x2="875" y2="275" />
  <circle cx="760" cy="275" r="5" fill="#638878" />
  <text class="rightTitle" x="895" y="265">Shared skills</text>
  <text class="rightText" x="895" y="298">- direct human use</text>
  <text class="rightText" x="895" y="328">- stable task names</text>
  <text class="rightText" x="895" y="358">- shared by humans and agents</text>

  <line class="lineBot" x1="760" y1="445" x2="875" y2="445" />
  <circle cx="760" cy="445" r="5" fill="#6f88ad" />
  <text class="rightTitle" x="895" y="435">Package capabilities</text>
  <text class="rightText" x="895" y="468">- data access</text>
  <text class="rightText" x="895" y="498">- classical processing</text>
  <text class="rightText" x="895" y="528">- deep feature extraction</text>
</svg>
